<svg width="410" height="218" viewBox="0 0 410 218" fill="none" xmlns="http://www.w3.org/2000/svg">
<path d="M59 9C59 4.02944 63.0294 0 68 0H106C110.971 0 115 4.02944 115 9V44H59V9Z" fill="#E8C803"/>
<path d="M59 67C59 62.0294 63.0294 58 68 58H106C110.971 58 115 62.0294 115 67V102H59V67Z" fill="#E8C803"/>
<path d="M59 125C59 120.029 63.0294 116 68 116H106C110.971 116 115 120.029 115 125V160H59V125Z" fill="#E8C803"/>
<path d="M59 183C59 178.029 63.0294 174 68 174H106C110.971 174 115 178.029 115 183V218H59V183Z" fill="#E8C803"/>
<path d="M0 67C0 62.0294 4.02944 58 9 58H47C51.9706 58 56 62.0294 56 67V102H0V67Z" fill="#E8C803"/>
<path d="M0 125C0 120.029 4.02944 116 9 116H47C51.9706 116 56 120.029 56 125V160H0V125Z" fill="#E8C803"/>
<path d="M0 183C0 178.029 4.02944 174 9 174H47C51.9706 174 56 178.029 56 183V218H0V183Z" fill="#E8C803"/>
<path d="M118 9C118 4.02944 122.029 0 127 0H165C169.971 0 174 4.02944 174 9V44H118V9Z" fill="#E8C803"/>
<path d="M118 67C118 62.0294 122.029 58 127 58H165C169.971 58 174 62.0294 174 67V102H118V67Z" fill="#E8C803"/>
<path d="M118 125C118 120.029 122.029 116 127 116H165C169.971 116 174 120.029 174 125V160H118V125Z" fill="#E8C803"/>
<path d="M118 183C118 178.029 122.029 174 127 174H165C169.971 174 174 178.029 174 183V218H118V183Z" fill="#E8C803"/>
<path d="M177 9C177 4.02944 181.029 0 186 0H224C228.971 0 233 4.02944 233 9V44H177V9Z" fill="#E8C803"/>
<path d="M177 67C177 62.0294 181.029 58 186 58H224C228.971 58 233 62.0294 233 67V102H177V67Z" fill="#E8C803"/>
<path d="M177 125C177 120.029 181.029 116 186 116H224C228.971 116 233 120.029 233 125V160H177V125Z" fill="#E8C803"/>
<path d="M177 183C177 178.029 181.029 174 186 174H224C228.971 174 233 178.029 233 183V218H177V183Z" fill="#E8C803"/>
<path d="M236 9C236 4.02944 240.029 0 245 0H283C287.971 0 292 4.02944 292 9V44H236V9Z" fill="#E8C803"/>
<path d="M236 67C236 62.0294 240.029 58 245 58H283C287.971 58 292 62.0294 292 67V102H236V67Z" fill="#E8C803"/>
<path d="M236 125C236 120.029 240.029 116 245 116H283C287.971 116 292 120.029 292 125V160H236V125Z" fill="#E8C803"/>
<path d="M236 183C236 178.029 240.029 174 245 174H283C287.971 174 292 178.029 292 183V218H236V183Z" fill="#E8C803"/>
<path d="M295 9C295 4.02944 299.029 0 304 0H342C346.971 0 351 4.02944 351 9V44H295V9Z" fill="#E8C803"/>
<path d="M295 67C295 62.0294 299.029 58 304 58H342C346.971 58 351 62.0294 351 67V102H295V67Z" fill="#E8C803"/>
<path d="M295 125C295 120.029 299.029 116 304 116H342C346.971 116 351 120.029 351 125V160H295V125Z" fill="#E8C803"/>
<path d="M295 183C295 178.029 299.029 174 304 174H342C346.971 174 351 178.029 351 183V218H295V183Z" fill="#E8C803"/>
<path d="M354 67C354 62.0294 358.029 58 363 58H401C405.971 58 410 62.0294 410 67V102H354V67Z" fill="#E8C803"/>
<path d="M354 125C354 120.029 358.029 116 363 116H401C405.971 116 410 120.029 410 125V160H354V125Z" fill="#E8C803"/>
<path d="M354 183C354 178.029 358.029 174 363 174H401C405.971 174 410 178.029 410 183V218H354V183Z" fill="#E8C803"/>
</svg>
