<svg width="336" height="332" viewBox="0 0 336 332" fill="none" xmlns="http://www.w3.org/2000/svg">
<rect x="81.502" width="265.402" height="265.402" rx="76" transform="rotate(17.1954 81.502 0)" fill="#22A1F5"/>
<rect x="78.4619" width="265.402" height="265.402" rx="76" transform="rotate(17.1954 78.4619 0)" fill="url(#paint0_radial_256_246)"/>
<rect x="4.54102" y="59.9924" width="262.402" height="262.402" rx="74.5" fill="url(#paint1_linear_256_246)" fill-opacity="0.47" stroke="url(#paint2_linear_256_246)" stroke-width="3"/>
<path fill-rule="evenodd" clip-rule="evenodd" d="M78.0837 141.955C76.998 137.958 72.8774 135.598 68.8801 136.684C64.8827 137.769 62.5224 141.89 63.6081 145.887L71.7806 175.977H54.7305C50.5883 175.977 47.2305 179.335 47.2305 183.477C47.2305 187.619 50.5883 190.977 54.7305 190.977L75.8546 190.977L79.3407 203.812H54.7305C50.5883 203.812 47.2305 207.17 47.2305 211.312C47.2305 215.454 50.5883 218.812 54.7305 218.812H83.4148L95.8384 264.553C96.9241 268.55 101.045 270.911 105.042 269.825C107.961 269.032 110.007 266.621 110.476 263.821L122.536 218.812L146.974 218.812L158.777 264.336C158.842 264.608 158.923 264.876 159.018 265.138C159.399 266.197 160.002 267.125 160.759 267.883C161.464 268.592 162.318 269.167 163.292 269.554C164.167 269.904 165.114 270.091 166.084 270.089C166.962 270.088 167.82 269.932 168.624 269.64C169.668 269.264 170.584 268.673 171.335 267.932C172.074 267.205 172.671 266.316 173.064 265.3C173.169 265.031 173.258 264.755 173.332 264.474L186.118 218.812H215.882C220.024 218.812 223.382 215.454 223.382 211.312C223.382 207.17 220.024 203.812 215.882 203.812H190.318L193.912 190.977L215.882 190.977C220.024 190.977 223.382 187.619 223.382 183.477C223.382 179.335 220.024 175.977 215.882 175.977H198.113L206.487 146.071C207.604 142.082 205.276 137.943 201.287 136.826C197.298 135.709 193.159 138.037 192.042 142.026L182.536 175.977L151.365 175.977L142.566 142.039C141.527 138.03 137.434 135.622 133.424 136.661C133.362 136.677 133.301 136.694 133.24 136.712C130.573 137.282 128.314 139.292 127.56 142.107L118.485 175.977L87.324 175.977L78.0837 141.955ZM134.957 172.458L134.014 175.977H135.869L134.957 172.458ZM139.758 190.977H129.994L126.555 203.812H143.085L139.758 190.977ZM162.47 218.812L166.35 233.778L170.541 218.812H162.47ZM158.581 203.812L155.254 190.977H178.335L174.741 203.812H158.581ZM114.465 190.977L91.3981 190.977L94.8842 203.812H111.026L114.465 190.977ZM107.007 218.812H98.9582L103.01 233.729L107.007 218.812Z" fill="url(#paint3_linear_256_246)"/>
<defs>
<radialGradient id="paint0_radial_256_246" cx="0" cy="0" r="1" gradientUnits="userSpaceOnUse" gradientTransform="translate(152.927 170.049) rotate(-50.5682) scale(279.139)">
<stop stop-color="#22A1F5"/>
<stop offset="1" stop-color="#3690EF"/>
</radialGradient>
<linearGradient id="paint1_linear_256_246" x1="231.085" y1="64.8661" x2="-94.2579" y2="436.325" gradientUnits="userSpaceOnUse">
<stop offset="0.435" stop-color="#C5E5F8"/>
<stop offset="1" stop-color="#D8ECF9" stop-opacity="0"/>
</linearGradient>
<linearGradient id="paint2_linear_256_246" x1="249.329" y1="79.5623" x2="61.319" y2="310.14" gradientUnits="userSpaceOnUse">
<stop offset="0.312088" stop-color="#EBF4FC"/>
<stop offset="1" stop-color="#8C9196" stop-opacity="0"/>
</linearGradient>
<linearGradient id="paint3_linear_256_246" x1="103.923" y1="168.299" x2="167.669" y2="264.46" gradientUnits="userSpaceOnUse">
<stop stop-color="#3F4CDE"/>
<stop offset="0.974325" stop-color="#677DEB"/>
</linearGradient>
</defs>
</svg>
