<svg width="336" height="336" viewBox="0 0 336 336" fill="none" xmlns="http://www.w3.org/2000/svg">
<path d="M56.7751 72.9987C69.1839 32.9012 111.749 10.455 151.846 22.8638L262.707 57.1714C302.805 69.5801 325.251 112.145 312.842 152.242L278.535 263.103C266.126 303.201 223.561 325.647 183.464 313.238L72.6025 278.931C32.505 266.522 10.0588 223.957 22.4676 183.86L56.7751 72.9987Z" fill="url(#paint0_radial_256_263)"/>
<rect x="3.69922" y="61.4602" width="263.201" height="263.201" rx="74.5" fill="url(#paint1_linear_256_263)" fill-opacity="0.47" stroke="url(#paint2_linear_256_263)" stroke-width="3"/>
<path fill-rule="evenodd" clip-rule="evenodd" d="M134.863 259.376C171.729 259.376 201.615 229.49 201.615 192.624C201.615 155.758 171.729 125.872 134.863 125.872C97.9972 125.872 68.1113 155.758 68.1113 192.624C68.1113 229.49 97.9972 259.376 134.863 259.376ZM134.863 269.376C177.252 269.376 211.615 235.013 211.615 192.624C211.615 150.235 177.252 115.872 134.863 115.872C92.4744 115.872 58.1113 150.235 58.1113 192.624C58.1113 235.013 92.4744 269.376 134.863 269.376ZM134.355 142.403C137.669 142.403 140.355 145.089 140.355 148.403V194.249H183.151C186.465 194.249 189.151 196.935 189.151 200.249C189.151 203.563 186.465 206.249 183.151 206.249H135.372C135.2 206.249 135.031 206.242 134.863 206.228C134.696 206.242 134.526 206.249 134.355 206.249C131.041 206.249 128.355 203.563 128.355 200.249V148.403C128.355 145.089 131.041 142.403 134.355 142.403Z" fill="url(#paint3_linear_256_263)"/>
<defs>
<radialGradient id="paint0_radial_256_263" cx="0" cy="0" r="1" gradientUnits="userSpaceOnUse" gradientTransform="translate(203.191 153.429) rotate(140.942) scale(160.828)">
<stop stop-color="#29B11C"/>
<stop offset="1" stop-color="#0A9634"/>
</radialGradient>
<linearGradient id="paint1_linear_256_263" x1="230.93" y1="66.3531" x2="-95.3928" y2="438.931" gradientUnits="userSpaceOnUse">
<stop offset="0.435" stop-color="#C5F8CE"/>
<stop offset="1" stop-color="#D8F9E6" stop-opacity="0"/>
</linearGradient>
<linearGradient id="paint2_linear_256_263" x1="249.229" y1="81.0935" x2="60.6528" y2="312.366" gradientUnits="userSpaceOnUse">
<stop offset="0.312088" stop-color="#EBFCEB"/>
<stop offset="1" stop-color="#8C9196" stop-opacity="0"/>
</linearGradient>
<linearGradient id="paint3_linear_256_263" x1="126.731" y1="139.762" x2="192.3" y2="284.117" gradientUnits="userSpaceOnUse">
<stop stop-color="#006400"/>
<stop offset="1" stop-color="#1B7921" stop-opacity="0"/>
</linearGradient>
</defs>
</svg>
