<svg width="161" height="161" viewBox="0 0 161 161" fill="none" xmlns="http://www.w3.org/2000/svg">
<path fill-rule="evenodd" clip-rule="evenodd" d="M80.5 146C116.675 146 146 116.675 146 80.5C146 44.3253 116.675 15 80.5 15C44.3253 15 15 44.3253 15 80.5C15 116.675 44.3253 146 80.5 146ZM80.5 161C124.959 161 161 124.959 161 80.5C161 36.0411 124.959 0 80.5 0C36.0411 0 0 36.0411 0 80.5C0 124.959 36.0411 161 80.5 161ZM80.0553 27.8011C83.369 27.8011 86.0553 30.4874 86.0553 33.8011V82.0608H130.757C134.071 82.0608 136.757 84.7471 136.757 88.0608C136.757 91.3745 134.071 94.0608 130.757 94.0608H80.9448C80.7952 94.0608 80.6469 94.0553 80.5 94.0445C80.3532 94.0553 80.2048 94.0608 80.0553 94.0608C76.7415 94.0608 74.0553 91.3745 74.0553 88.0608V33.8011C74.0553 30.4874 76.7415 27.8011 80.0553 27.8011Z" fill="url(#paint0_linear_299_149)"/>
<defs>
<linearGradient id="paint0_linear_299_149" x1="48.4779" y1="5.33701" x2="151.215" y2="203.251" gradientUnits="userSpaceOnUse">
<stop stop-color="#3140EB"/>
<stop offset="1" stop-color="#40BFFF"/>
</linearGradient>
</defs>
</svg>
