<svg width="177" height="134" viewBox="0 0 177 134" fill="none" xmlns="http://www.w3.org/2000/svg">
<path fill-rule="evenodd" clip-rule="evenodd" d="M30.8532 5.53606C29.7675 1.53874 25.6469 -0.821601 21.6496 0.26409C17.6523 1.34978 15.2919 5.47038 16.3776 9.4677L24.5501 39.5572H7.5C3.35786 39.5572 0 42.9151 0 47.0572C0 51.1994 3.35787 54.5572 7.5 54.5572L28.6242 54.5572L32.1103 67.3924H7.5C3.35786 67.3924 0 70.7502 0 74.8924C0 79.0345 3.35787 82.3924 7.5 82.3924H36.1843L48.6079 128.134C49.6936 132.131 53.8142 134.491 57.8115 133.406C60.7305 132.613 62.7766 130.202 63.2453 127.402L75.3056 82.3924L99.7438 82.3924L111.546 127.916C111.612 128.188 111.692 128.456 111.787 128.718C112.169 129.777 112.772 130.706 113.528 131.463C114.233 132.172 115.088 132.747 116.061 133.134C116.937 133.484 117.883 133.672 118.854 133.67C119.731 133.669 120.59 133.512 121.394 133.221C122.437 132.844 123.353 132.254 124.104 131.513C124.844 130.786 125.441 129.897 125.834 128.881C125.938 128.611 126.028 128.336 126.101 128.055L138.887 82.3924H168.651C172.793 82.3924 176.151 79.0345 176.151 74.8924C176.151 70.7502 172.793 67.3924 168.651 67.3924H143.088L146.682 54.5572L168.651 54.5572C172.793 54.5572 176.151 51.1993 176.151 47.0572C176.151 42.9151 172.793 39.5572 168.651 39.5572H150.882L159.256 9.65109C160.373 5.66238 158.045 1.52346 154.056 0.406546C150.068 -0.710366 145.929 1.61768 144.812 5.60639L135.305 39.5572L104.134 39.5572L95.3357 5.61966C94.2962 1.61009 90.2031 -0.797619 86.1935 0.2419C86.1317 0.257919 86.0703 0.274663 86.0093 0.29212C83.3428 0.863018 81.0836 2.87275 80.3294 5.6876L71.2541 39.5572L40.0935 39.5572L30.8532 5.53606ZM87.7261 36.0383L86.7832 39.5572H88.6384L87.7261 36.0383ZM92.5273 54.5572H82.764L79.3248 67.3924H95.8549L92.5273 54.5572ZM115.24 82.3924L119.12 97.3582L123.31 82.3924H115.24ZM111.351 67.3924L108.023 54.5572H131.105L127.511 67.3924H111.351ZM67.2348 54.5572L44.1676 54.5572L47.6537 67.3924H63.7957L67.2348 54.5572ZM59.7764 82.3924H51.7278L55.7794 97.3096L59.7764 82.3924Z" fill="url(#paint0_linear_290_131)"/>
<defs>
<linearGradient id="paint0_linear_290_131" x1="56.6924" y1="31.8798" x2="118.96" y2="149.521" gradientUnits="userSpaceOnUse">
<stop stop-color="#1C5B2D"/>
<stop offset="0.974325" stop-color="#77CB11"/>
</linearGradient>
</defs>
</svg>
