<svg width="230" height="233" viewBox="0 0 230 233" fill="none" xmlns="http://www.w3.org/2000/svg">
<path d="M57.4463 60.4463C25.7196 92.173 25.7196 143.612 57.4463 175.339C89.173 207.066 140.612 207.066 172.339 175.339C204.066 143.612 204.066 92.173 172.339 60.4463" stroke="#EAB049" stroke-width="10"/>
<path fill-rule="evenodd" clip-rule="evenodd" d="M82.2999 80.4848C81.2142 76.4875 77.0936 74.1271 73.0963 75.2128C69.099 76.2985 66.7386 80.4191 67.8243 84.4164L71.8865 99.3725H65.1123C60.9702 99.3725 57.6123 102.73 57.6123 106.872C57.6123 111.015 60.9702 114.372 65.1123 114.372H75.9605L76.5543 116.559H65.1123C60.9702 116.559 57.6123 119.917 57.6123 124.059C57.6123 128.201 60.9702 131.559 65.1123 131.559H80.6284L87.7239 157.683C88.8096 161.68 92.9302 164.041 96.9275 162.955C99.7934 162.177 101.818 159.838 102.334 157.104L109.179 131.559H119.845L126.56 157.458C126.63 157.751 126.718 158.039 126.822 158.32C127.202 159.35 127.791 160.255 128.528 160.997C129.232 161.709 130.086 162.287 131.06 162.677C131.967 163.042 132.95 163.233 133.958 163.218C134.777 163.207 135.578 163.062 136.333 162.797C137.445 162.409 138.415 161.78 139.198 160.984C139.878 160.295 140.432 159.467 140.81 158.528C140.933 158.225 141.037 157.912 141.119 157.593L148.41 131.559H164.61C168.752 131.559 172.11 128.201 172.11 124.059C172.11 119.917 168.752 116.559 164.61 116.559H152.61L153.222 114.372H164.61C168.752 114.372 172.11 111.015 172.11 106.872C172.11 102.73 168.752 99.3725 164.61 99.3725H157.422L161.573 84.5511C162.689 80.5624 160.361 76.4235 156.373 75.3066C152.384 74.1897 148.245 76.5177 147.128 80.5064L141.845 99.3725L126.997 99.3725L122.121 80.5684C121.082 76.5588 116.989 74.1511 112.979 75.1906C112.954 75.197 112.93 75.2036 112.905 75.2102C110.274 75.8045 108.054 77.8017 107.307 80.5876L102.274 99.3725L87.4299 99.3725L82.2999 80.4848ZM115.389 114.372H113.784L113.198 116.559H115.956L115.389 114.372ZM131.452 116.559H137.033L137.645 114.372H130.885L131.452 116.559ZM98.2548 114.372H91.504L92.0978 116.559H97.669L98.2548 114.372Z" fill="url(#paint0_linear_420_474)"/>
<path d="M90.3926 38.3926L90.3926 60.3926" stroke="#EAB049" stroke-width="10" stroke-linecap="round"/>
<path d="M115.393 13.3926L115.393 35.3926" stroke="#EAB049" stroke-width="10" stroke-linecap="round"/>
<path d="M141.393 28.3926L141.393 60.3926" stroke="#EAB049" stroke-width="10" stroke-linecap="round"/>
<path d="M141.393 5.39258L141.393 13.3926" stroke="#EAB049" stroke-width="10" stroke-linecap="round"/>
<path d="M90.3926 15.3926L90.3926 23.3926" stroke="#EAB049" stroke-width="10" stroke-linecap="round"/>
<defs>
<linearGradient id="paint0_linear_420_474" x1="94.4622" y1="96.0009" x2="135.945" y2="173.144" gradientUnits="userSpaceOnUse">
<stop stop-color="#B1591A"/>
<stop offset="0.974325" stop-color="#E6C352"/>
</linearGradient>
</defs>
</svg>
