<svg width="248" height="222" viewBox="0 0 248 222" fill="none" xmlns="http://www.w3.org/2000/svg">
<path d="M181.335 70.3569C158.901 31.4998 109.214 18.1864 70.357 40.6206C31.4999 63.0547 18.1865 112.741 40.6207 151.598C63.0548 190.455 112.741 203.769 151.598 181.335" stroke="#EAB049" stroke-width="10"/>
<path fill-rule="evenodd" clip-rule="evenodd" d="M78.3849 73.5697C77.2992 69.5724 73.1786 67.2121 69.1813 68.2978C65.1839 69.3835 62.8236 73.5041 63.9093 77.5014L67.9714 92.4574H61.1973C57.0551 92.4574 53.6973 95.8153 53.6973 99.9574C53.6973 104.1 57.0551 107.457 61.1973 107.457H72.0455L72.6393 109.644H61.1973C57.0551 109.644 53.6973 113.002 53.6973 117.144C53.6973 121.286 57.0551 124.644 61.1973 124.644H76.7134L83.8088 150.768C84.8945 154.765 89.0151 157.126 93.0125 156.04C95.8783 155.261 97.9028 152.923 98.4191 150.189L105.264 124.644H115.93L122.645 150.543C122.715 150.836 122.803 151.124 122.907 151.405C123.287 152.435 123.876 153.34 124.613 154.082C125.317 154.794 126.171 155.372 127.145 155.762C128.052 156.127 129.035 156.318 130.042 156.303C130.862 156.292 131.663 156.147 132.418 155.882C133.529 155.494 134.499 154.865 135.283 154.069C135.963 153.38 136.517 152.552 136.895 151.613C137.018 151.31 137.122 150.997 137.204 150.678L144.495 124.644H160.695C164.837 124.644 168.195 121.286 168.195 117.144C168.195 113.002 164.837 109.644 160.695 109.644H148.695L149.307 107.457H160.695C164.837 107.457 168.195 104.1 168.195 99.9574C168.195 95.8153 164.837 92.4574 160.695 92.4574H153.507L157.658 77.6361C158.774 73.6474 156.446 69.5085 152.458 68.3915C148.469 67.2746 144.33 69.6027 143.213 73.5914L137.93 92.4574L123.081 92.4574L118.206 73.6534C117.167 69.6438 113.074 67.2361 109.064 68.2756C109.039 68.282 109.015 68.2885 108.99 68.2952C106.359 68.8894 104.139 70.8867 103.392 73.6726L98.359 92.4574L83.5149 92.4574L78.3849 73.5697ZM111.474 107.457H109.869L109.283 109.644H112.041L111.474 107.457ZM127.537 109.644H133.118L133.73 107.457H126.97L127.537 109.644ZM94.3397 107.457H87.5889L88.1827 109.644H93.7539L94.3397 107.457Z" fill="url(#paint0_linear_420_487)"/>
<path fill-rule="evenodd" clip-rule="evenodd" d="M232.954 132.208C232.986 131.556 233.003 130.9 233.003 130.24C233.003 108.832 215.648 91.4775 194.24 91.4775C172.832 91.4775 155.478 108.832 155.478 130.24C155.478 151.648 172.832 169.003 194.24 169.003C212.371 169.003 227.595 156.554 231.831 139.738C230.766 140.702 229.354 141.289 227.804 141.289H194.537C194.439 141.289 194.342 141.287 194.245 141.282C194.145 141.287 194.044 141.29 193.943 141.29C190.629 141.29 187.943 138.604 187.943 135.29V99.0521C187.943 95.7384 190.629 93.0521 193.943 93.0521C197.257 93.0521 199.943 95.7384 199.943 99.0521V129.289H227.804C229.991 129.289 231.905 130.459 232.954 132.208ZM194.24 184.003C223.932 184.003 248.003 159.932 248.003 130.24C248.003 100.548 223.932 76.4775 194.24 76.4775C164.548 76.4775 140.478 100.548 140.478 130.24C140.478 159.932 164.548 184.003 194.24 184.003Z" fill="url(#paint1_linear_420_487)"/>
<defs>
<linearGradient id="paint0_linear_420_487" x1="90.5471" y1="89.0858" x2="132.03" y2="166.229" gradientUnits="userSpaceOnUse">
<stop stop-color="#B1591A"/>
<stop offset="0.974325" stop-color="#E6C352"/>
</linearGradient>
<linearGradient id="paint1_linear_420_487" x1="172.854" y1="80.0419" x2="241.468" y2="212.221" gradientUnits="userSpaceOnUse">
<stop stop-color="#AD5219"/>
<stop offset="1" stop-color="#FFA640"/>
</linearGradient>
</defs>
</svg>
